<svg width="263" height="106" viewBox="0 0 263 106" fill="none" xmlns="http://www.w3.org/2000/svg">
<rect width="263" height="106" fill="#314488"/>
<circle cx="34.5" cy="26.5" r="4.5" fill="white"/>
<circle cx="51" cy="22" r="4" fill="white"/>
<circle cx="66.5" cy="26.5" r="3.5" fill="white"/>
<circle cx="57.5" cy="33.5" r="3.5" fill="white"/>
<circle cx="46" cy="34" r="4" fill="white"/>
<circle cx="36" cy="39" r="4" fill="white"/>
<circle cx="23.5" cy="37.5" r="3.5" fill="white"/>
<circle cx="19" cy="54" r="3" fill="white"/>
<circle cx="31" cy="48" r="3" fill="white"/>
<circle cx="46" cy="44" r="3" fill="white"/>
<circle cx="67" cy="39" r="3" fill="white"/>
<circle cx="79" cy="38" r="3" fill="white"/>
<circle cx="56.5" cy="44.5" r="2.5" fill="white"/>
<circle cx="72" cy="48" r="2" fill="white"/>
<circle cx="62" cy="54" r="2" fill="white"/>
<circle cx="37" cy="68" r="2" fill="white"/>
<circle cx="46" cy="63" r="2" fill="white"/>
<circle cx="57" cy="63" r="2" fill="white"/>
<circle cx="71" cy="59" r="2" fill="white"/>
<circle cx="83" cy="54" r="2" fill="white"/>
<circle cx="65.5" cy="68.5" r="1.5" fill="white"/>
<circle cx="67" cy="81" r="1" fill="white"/>
<circle cx="78.5" cy="69.5" r="1.5" fill="white"/>
<circle cx="51.5" cy="85.5" r="1.5" fill="white"/>
<circle cx="56.5" cy="74.5" r="1.5" fill="white"/>
<circle cx="46" cy="74" r="2" fill="white"/>
<circle cx="35.5" cy="81.5" r="2.5" fill="white"/>
<circle cx="51.5" cy="53.5" r="2.5" fill="white"/>
<circle cx="40.5" cy="53.5" r="2.5" fill="white"/>
<circle cx="31" cy="59" r="3" fill="white"/>
<circle cx="23" cy="70" r="3" fill="white"/>
<path d="M113.048 50.432C110.48 50.432 108.152 49.88 106.064 48.776C104 47.648 102.368 46.1 101.168 44.132C99.992 42.14 99.404 39.896 99.404 37.4C99.404 34.904 99.992 32.672 101.168 30.704C102.368 28.712 104 27.164 106.064 26.06C108.152 24.932 110.492 24.368 113.084 24.368C115.268 24.368 117.236 24.752 118.988 25.52C120.764 26.288 122.252 27.392 123.452 28.832L119.708 32.288C118.004 30.32 115.892 29.336 113.372 29.336C111.812 29.336 110.42 29.684 109.196 30.38C107.972 31.052 107.012 32 106.316 33.224C105.644 34.448 105.308 35.84 105.308 37.4C105.308 38.96 105.644 40.352 106.316 41.576C107.012 42.8 107.972 43.76 109.196 44.456C110.42 45.128 111.812 45.464 113.372 45.464C115.892 45.464 118.004 44.468 119.708 42.476L123.452 45.932C122.252 47.396 120.764 48.512 118.988 49.28C117.212 50.048 115.232 50.432 113.048 50.432ZM126.821 30.632H132.401V42.152L141.833 30.632H146.981V50H141.401V38.48L132.005 50H126.821V30.632ZM163.792 30.344C165.592 30.344 167.224 30.764 168.688 31.604C170.176 32.42 171.34 33.584 172.18 35.096C173.02 36.584 173.44 38.324 173.44 40.316C173.44 42.308 173.02 44.06 172.18 45.572C171.34 47.06 170.176 48.224 168.688 49.064C167.224 49.88 165.592 50.288 163.792 50.288C161.32 50.288 159.376 49.508 157.96 47.948V56.984H152.344V30.632H157.708V32.864C159.1 31.184 161.128 30.344 163.792 30.344ZM162.82 45.68C164.26 45.68 165.436 45.2 166.348 44.24C167.284 43.256 167.752 41.948 167.752 40.316C167.752 38.684 167.284 37.388 166.348 36.428C165.436 35.444 164.26 34.952 162.82 34.952C161.38 34.952 160.192 35.444 159.256 36.428C158.344 37.388 157.888 38.684 157.888 40.316C157.888 41.948 158.344 43.256 159.256 44.24C160.192 45.2 161.38 45.68 162.82 45.68ZM177.376 30.632H182.956V42.152L192.388 30.632H197.536V50H191.956V38.48L182.56 50H177.376V30.632ZM222.338 30.632L213.59 51.188C212.702 53.42 211.598 54.992 210.278 55.904C208.982 56.816 207.41 57.272 205.562 57.272C204.554 57.272 203.558 57.116 202.574 56.804C201.59 56.492 200.786 56.06 200.162 55.508L202.214 51.512C202.646 51.896 203.138 52.196 203.69 52.412C204.266 52.628 204.83 52.736 205.382 52.736C206.15 52.736 206.774 52.544 207.254 52.16C207.734 51.8 208.166 51.188 208.55 50.324L208.622 50.144L200.234 30.632H206.03L211.466 43.772L216.938 30.632H222.338ZM233.736 50.288C231.672 50.288 229.812 49.868 228.156 49.028C226.524 48.164 225.24 46.976 224.304 45.464C223.392 43.952 222.936 42.236 222.936 40.316C222.936 38.396 223.392 36.68 224.304 35.168C225.24 33.656 226.524 32.48 228.156 31.64C229.812 30.776 231.672 30.344 233.736 30.344C235.776 30.344 237.552 30.776 239.064 31.64C240.6 32.48 241.716 33.692 242.412 35.276L238.056 37.616C237.048 35.84 235.596 34.952 233.7 34.952C232.236 34.952 231.024 35.432 230.064 36.392C229.104 37.352 228.624 38.66 228.624 40.316C228.624 41.972 229.104 43.28 230.064 44.24C231.024 45.2 232.236 45.68 233.7 45.68C235.62 45.68 237.072 44.792 238.056 43.016L242.412 45.392C241.716 46.928 240.6 48.128 239.064 48.992C237.552 49.856 235.776 50.288 233.736 50.288Z" fill="white"/>
<path d="M103.95 71.543H101.23V77H100.006V65.1H101.23V70.438H103.95L107.979 65.1H109.339L104.919 70.88L109.594 77H108.149L103.95 71.543ZM114.828 77.085C113.967 77.085 113.19 76.8923 112.499 76.507C111.808 76.1103 111.264 75.5663 110.867 74.875C110.47 74.1837 110.272 73.4017 110.272 72.529C110.272 71.6563 110.47 70.8743 110.867 70.183C111.264 69.4917 111.808 68.9533 112.499 68.568C113.19 68.1827 113.967 67.99 114.828 67.99C115.689 67.99 116.466 68.1827 117.157 68.568C117.848 68.9533 118.387 69.4917 118.772 70.183C119.169 70.8743 119.367 71.6563 119.367 72.529C119.367 73.4017 119.169 74.1837 118.772 74.875C118.387 75.5663 117.848 76.1103 117.157 76.507C116.466 76.8923 115.689 77.085 114.828 77.085ZM114.828 76.014C115.463 76.014 116.029 75.8723 116.528 75.589C117.038 75.2943 117.435 74.8807 117.718 74.348C118.001 73.8153 118.143 73.209 118.143 72.529C118.143 71.849 118.001 71.2427 117.718 70.71C117.435 70.1773 117.038 69.7693 116.528 69.486C116.029 69.1913 115.463 69.044 114.828 69.044C114.193 69.044 113.621 69.1913 113.111 69.486C112.612 69.7693 112.216 70.1773 111.921 70.71C111.638 71.2427 111.496 71.849 111.496 72.529C111.496 73.209 111.638 73.8153 111.921 74.348C112.216 74.8807 112.612 75.2943 113.111 75.589C113.621 75.8723 114.193 76.014 114.828 76.014ZM129.207 68.058V77H128V69.129H123.716L123.597 71.339C123.506 73.1977 123.291 74.6257 122.951 75.623C122.611 76.6203 122.004 77.119 121.132 77.119C120.894 77.119 120.605 77.0737 120.265 76.983L120.35 75.946C120.554 75.9913 120.695 76.014 120.775 76.014C121.239 76.014 121.591 75.7987 121.829 75.368C122.067 74.9373 122.225 74.4047 122.305 73.77C122.384 73.1353 122.452 72.2967 122.509 71.254L122.662 68.058H129.207ZM139.948 68.058V77H138.741V69.129H134.457L134.338 71.339C134.247 73.1977 134.032 74.6257 133.692 75.623C133.352 76.6203 132.746 77.119 131.873 77.119C131.635 77.119 131.346 77.0737 131.006 76.983L131.091 75.946C131.295 75.9913 131.437 76.014 131.516 76.014C131.981 76.014 132.332 75.7987 132.57 75.368C132.808 74.9373 132.967 74.4047 133.046 73.77C133.125 73.1353 133.193 72.2967 133.25 71.254L133.403 68.058H139.948ZM151.199 72.903H143.719C143.787 73.8323 144.144 74.586 144.79 75.164C145.436 75.7307 146.252 76.014 147.238 76.014C147.793 76.014 148.303 75.9177 148.768 75.725C149.233 75.521 149.635 75.2263 149.975 74.841L150.655 75.623C150.258 76.099 149.76 76.4617 149.159 76.711C148.57 76.9603 147.918 77.085 147.204 77.085C146.286 77.085 145.47 76.8923 144.756 76.507C144.053 76.1103 143.504 75.5663 143.107 74.875C142.71 74.1837 142.512 73.4017 142.512 72.529C142.512 71.6563 142.699 70.8743 143.073 70.183C143.458 69.4917 143.98 68.9533 144.637 68.568C145.306 68.1827 146.054 67.99 146.881 67.99C147.708 67.99 148.451 68.1827 149.108 68.568C149.765 68.9533 150.281 69.4917 150.655 70.183C151.029 70.863 151.216 71.645 151.216 72.529L151.199 72.903ZM146.881 69.027C146.02 69.027 145.294 69.3047 144.705 69.86C144.127 70.404 143.798 71.118 143.719 72.002H150.06C149.981 71.118 149.646 70.404 149.057 69.86C148.479 69.3047 147.754 69.027 146.881 69.027ZM162.426 75.946V79.159H161.287V77H153.28V79.159H152.141V75.946H152.651C153.252 75.912 153.66 75.47 153.875 74.62C154.091 73.77 154.238 72.58 154.317 71.05L154.436 68.058H161.032V75.946H162.426ZM155.422 71.118C155.366 72.3873 155.258 73.4357 155.099 74.263C154.941 75.079 154.657 75.64 154.249 75.946H159.825V69.129H155.524L155.422 71.118ZM172.616 73.022H170.678V77H169.471V73.022H167.533L164.796 77H163.351L166.564 72.393L163.606 68.058H164.915L167.533 71.985H169.471V68.058H170.678V71.985H172.616L175.251 68.058H176.56L173.602 72.41L176.815 77H175.37L172.616 73.022Z" fill="white"/>
</svg>
